<svg width="25" height="24" viewBox="0 0 25 24" fill="none" xmlns="http://www.w3.org/2000/svg">
<path d="M5.59179 9.7501C5.59054 8.86096 5.76522 7.98035 6.10575 7.15901C6.44629 6.33766 6.94596 5.5918 7.57599 4.96438C8.20601 4.33697 8.95395 3.84041 9.7767 3.50329C10.5995 3.16617 11.4808 2.99516 12.3699 3.0001C16.0824 3.02823 19.0543 6.1126 19.0543 9.83448V10.5001C19.0543 13.8564 19.7574 15.8064 20.3762 16.8751C20.4419 16.9889 20.4765 17.118 20.4766 17.2494C20.4768 17.3809 20.4423 17.51 20.3768 17.624C20.3113 17.7379 20.217 17.8326 20.1034 17.8986C19.9897 17.9647 19.8607 17.9996 19.7293 18.0001H4.91679C4.78536 17.9996 4.65636 17.9647 4.54272 17.8986C4.42907 17.8326 4.33477 17.7379 4.26925 17.624C4.20374 17.51 4.16932 17.3809 4.16943 17.2494C4.16955 17.118 4.2042 16.9889 4.26992 16.8751C4.88867 15.8064 5.59179 13.8564 5.59179 10.5001V9.7501Z" stroke="#9695A8" stroke-width="1.5" stroke-linecap="round" stroke-linejoin="round"/>
<path d="M9.32324 18V18.75C9.32324 19.5456 9.63931 20.3087 10.2019 20.8713C10.7645 21.4339 11.5276 21.75 12.3232 21.75C13.1189 21.75 13.882 21.4339 14.4446 20.8713C15.0072 20.3087 15.3232 19.5456 15.3232 18.75V18" stroke="#9695A8" stroke-width="1.5" stroke-linecap="round" stroke-linejoin="round"/>
<circle cx="17.3232" cy="5" r="4.25" fill="#68D373" stroke="white" stroke-width="1.5"/>
</svg>
