<svg width="24" height="24" viewBox="0 0 24 24" fill="none" xmlns="http://www.w3.org/2000/svg">
<g id="Content, Edit/Calendar, Task, Sheet">
<g id="Group">
<g id="Group_2">
<path id="Path" fill-rule="evenodd" clip-rule="evenodd" d="M19 4H5C3.895 4 3 4.895 3 6V19C3 20.105 3.895 21 5 21H19C20.105 21 21 20.105 21 19V6C21 4.895 20.105 4 19 4Z" stroke="#B3BCC8" stroke-width="1.5" stroke-linecap="round" stroke-linejoin="round"/>
<path id="Path_2" d="M16 3V6" stroke="#B3BCC8" stroke-width="1.5" stroke-linecap="round" stroke-linejoin="round"/>
<path id="Path_3" d="M12 3V6" stroke="#B3BCC8" stroke-width="1.5" stroke-linecap="round" stroke-linejoin="round"/>
<path id="Path_4" d="M8 3V6" stroke="#B3BCC8" stroke-width="1.5" stroke-linecap="round" stroke-linejoin="round"/>
<path id="Path_5" d="M12 16H17" stroke="#B3BCC8" stroke-width="1.5" stroke-linecap="round" stroke-linejoin="round"/>
<path id="Path_6" d="M8.63389 15.1161C9.12204 15.6043 9.12204 16.3957 8.63389 16.8839C8.14573 17.372 7.35428 17.372 6.86612 16.8839C6.37796 16.3957 6.37796 15.6043 6.86612 15.1161C7.35427 14.628 8.14573 14.628 8.63389 15.1161" stroke="#B3BCC8" stroke-width="1.5" stroke-linecap="round" stroke-linejoin="round"/>
<path id="Path_7" d="M12 11H17" stroke="#B3BCC8" stroke-width="1.5" stroke-linecap="round" stroke-linejoin="round"/>
<path id="Path_8" d="M8.63389 10.1161C9.12204 10.6043 9.12204 11.3957 8.63389 11.8839C8.14573 12.372 7.35428 12.372 6.86612 11.8839C6.37796 11.3957 6.37796 10.6043 6.86612 10.1161C7.35427 9.62796 8.14573 9.62796 8.63389 10.1161" stroke="#B3BCC8" stroke-width="1.5" stroke-linecap="round" stroke-linejoin="round"/>
</g>
</g>
</g>
</svg>
