<svg width="136" height="136" viewBox="0 0 136 136" fill="none" xmlns="http://www.w3.org/2000/svg">
<g id="Frame" clip-path="url(#clip0_1609_12731)">
<g id="Group">
<path id="Vector" d="M133.31 40.7955C127.372 25.6846 109.078 16.6228 93.5843 22.6195C75.8985 29.4644 81.7624 57.5952 65.6982 63.2835C57.0205 66.3563 44.1924 54.8781 35.4252 53.1181C19.2696 49.8748 4.64429 61.2741 1.04295 77.0599C-2.63117 93.1648 3.26171 114.675 20.9561 119.046C42.0334 124.253 53.0125 105.306 70.6941 99.8651C88.8389 94.282 109.014 107.468 124.035 91.4246C135.133 79.5722 139.191 55.7586 133.31 40.7955Z" fill="url(#paint0_linear_1609_12731)"/>
<path id="Vector_2" opacity="0.1" d="M126.663 47.4387C126.663 36.9471 118.158 28.442 107.667 28.442C99.5385 28.442 92.606 33.5487 89.8937 40.7272H21.2012C18.2671 40.7272 15.8887 43.1056 15.8887 46.0397V104.852C15.8887 107.786 18.2671 110.164 21.2012 110.164H114.801C117.735 110.164 120.113 107.786 120.113 104.852V61.7833C124.124 58.3001 126.663 53.1677 126.663 47.4387Z" fill="#863288"/>
<path id="Vector_3" d="M114.799 103.524H21.1992C18.2651 103.524 15.8867 101.145 15.8867 98.2111V39.399C15.8867 36.465 18.2651 34.0865 21.1992 34.0865H114.799C117.733 34.0865 120.111 36.465 120.111 39.399V98.2111C120.112 101.145 117.733 103.524 114.799 103.524Z" fill="#963192" fill-opacity="0.4"/>
<g id="Group_2">
<path id="Vector_4" d="M120.113 39.4004V61.8457C116.779 64.7384 112.428 66.4915 107.665 66.4915C97.1733 66.4915 88.668 57.9862 88.668 47.4966C88.668 42.2638 90.785 37.5224 94.2089 34.0879H114.8C117.733 34.0879 120.113 36.4652 120.113 39.4004Z" fill="#963192" fill-opacity="0.2"/>
<path id="Vector_5" d="M120.113 39.4004V46.0968L72.8553 82.3998C71.4688 83.4649 69.7448 84.0493 67.9997 84.0493C66.2545 84.0493 64.5306 83.4649 63.1441 82.3998L15.8867 46.0968V39.4004C15.8867 36.4652 18.2667 34.0879 21.1992 34.0879H114.8C117.733 34.0879 120.113 36.4652 120.113 39.4004Z" fill="#963192" fill-opacity="0.2"/>
<path id="Vector_6" d="M69.6173 59.4232L120.112 98.2111C120.112 101.145 117.733 103.524 114.799 103.524H21.1992C18.2651 103.524 15.8867 101.145 15.8867 98.2111L66.381 59.4232C66.8451 59.0667 67.4139 58.8734 67.9992 58.8734C68.5844 58.8734 69.1532 59.0667 69.6173 59.4232Z" fill="#963192" fill-opacity="0.2"/>
</g>
<path id="Vector_7" d="M86.192 72.1546L72.8549 82.3997C71.4684 83.4649 69.7445 84.0493 67.9993 84.0493C66.2541 84.0493 64.5302 83.4649 63.1437 82.3997L49.8066 72.1546L66.3816 59.4232C66.8455 59.0666 67.4142 58.8733 67.9993 58.8733C68.5844 58.8733 69.1531 59.0666 69.617 59.4232L86.192 72.1546Z" fill="#963192" fill-opacity="0.2"/>
<path id="Vector_8" d="M66.381 78.1872L15.8867 39.399C15.8867 36.465 18.2651 34.0865 21.1992 34.0865H114.799C117.733 34.0865 120.111 36.465 120.111 39.399L69.6173 78.1872C69.1532 78.5436 68.5844 78.7369 67.9992 78.7369C67.4139 78.7369 66.8451 78.5436 66.381 78.1872Z" fill="#963192" fill-opacity="0.7"/>
<path id="Vector_9" d="M98.5336 96.4551H89.998C89.6458 96.4551 89.308 96.3152 89.0589 96.0661C88.8099 95.817 88.6699 95.4792 88.6699 95.127V89.2423C88.6699 88.8901 88.8099 88.5523 89.0589 88.3032C89.308 88.0541 89.6458 87.9142 89.998 87.9142H98.5336C98.8859 87.9142 99.2237 88.0541 99.4728 88.3032C99.7218 88.5523 99.8618 88.8901 99.8618 89.2423V95.127C99.8618 95.4792 99.7218 95.817 99.4728 96.0661C99.2237 96.3152 98.8859 96.4551 98.5336 96.4551Z" fill="#02FFB3"/>
<path id="Vector_10" d="M82.8404 91.0411H75.4473C75.095 91.0411 74.7572 90.9012 74.5081 90.6521C74.2591 90.4031 74.1191 90.0653 74.1191 89.713C74.1191 89.3608 74.2591 89.023 74.5081 88.7739C74.7572 88.5248 75.095 88.3849 75.4473 88.3849H82.8404C83.1926 88.3849 83.5305 88.5248 83.7795 88.7739C84.0286 89.023 84.1685 89.3608 84.1685 89.713C84.1685 90.0653 84.0286 90.4031 83.7795 90.6521C83.5305 90.9012 83.1926 91.0411 82.8404 91.0411ZM82.8404 96.4551H56.8535C56.5013 96.4551 56.1635 96.3152 55.9144 96.0661C55.6653 95.817 55.5254 95.4792 55.5254 95.127C55.5254 94.7747 55.6653 94.4369 55.9144 94.1879C56.1635 93.9388 56.5013 93.7989 56.8535 93.7989H82.8404C83.1926 93.7989 83.5305 93.9388 83.7795 94.1879C84.0286 94.4369 84.1685 94.7747 84.1685 95.127C84.1685 95.4792 84.0286 95.817 83.7795 96.0661C83.5305 96.3152 83.1926 96.4551 82.8404 96.4551Z" fill="white"/>
<path id="Vector_11" d="M107.667 59.7948C118.158 59.7948 126.663 51.2897 126.663 40.7981C126.663 30.3065 118.158 21.8014 107.667 21.8014C97.175 21.8014 88.6699 30.3065 88.6699 40.7981C88.6699 51.2897 97.175 59.7948 107.667 59.7948Z" fill="#FF5BA8"/>
<path id="Vector_12" d="M107.667 61.1229C118.874 61.1229 127.991 52.0053 127.991 40.7981C127.991 29.5908 118.874 20.4733 107.667 20.4733C96.4594 20.4733 87.3418 29.5908 87.3418 40.7981C87.3418 47.3176 90.4308 53.1258 95.2184 56.8474L68.8099 77.1337C68.5778 77.3118 68.2934 77.4084 68.0008 77.4084C67.7083 77.4084 67.4239 77.3118 67.1917 77.1337L17.2643 38.7812C17.5621 36.8767 19.2143 35.4147 21.2009 35.4147H82.1263C82.4785 35.4147 82.8163 35.2747 83.0654 35.0257C83.3145 34.7766 83.4544 34.4388 83.4544 34.0865C83.4544 33.7343 83.3145 33.3965 83.0654 33.1474C82.8163 32.8984 82.4785 32.7584 82.1263 32.7584H21.2012C17.5395 32.7584 14.5605 35.7374 14.5605 39.399V98.2111C14.5605 101.873 17.5395 104.852 21.2012 104.852H114.801C118.462 104.852 121.441 101.873 121.441 98.2111V63.1114C121.441 62.7591 121.301 62.4213 121.052 62.1723C120.803 61.9232 120.466 61.7833 120.113 61.7833C119.761 61.7833 119.423 61.9232 119.174 62.1723C118.925 62.4213 118.785 62.7591 118.785 63.1114V95.5161L84.0127 68.8051L97.5437 58.4112C100.621 60.1902 104.112 61.1257 107.667 61.1229ZM51.989 68.8051L17.2168 95.5161V42.0941L51.989 68.8051ZM118.733 98.8255C118.436 100.731 116.788 102.195 114.801 102.195H21.2012C19.2135 102.195 17.5661 100.731 17.2691 98.8255L54.1695 70.4798L65.5738 79.2401C66.2884 79.7889 67.1447 80.0636 68.0011 80.0636C68.8575 80.0636 69.7136 79.7892 70.4284 79.2401L81.8327 70.4796L118.733 98.8255ZM89.998 40.7981C89.998 31.0558 97.924 23.1295 107.667 23.1295C117.409 23.1295 125.335 31.0555 125.335 40.7981C125.335 50.5407 117.409 58.4667 107.667 58.4667C97.924 58.4667 89.998 50.5404 89.998 40.7981Z" fill="#863288"/>
<path id="Vector_13" d="M99.3744 34.3198L102.085 40.7982L99.3744 47.2765C98.9141 48.3767 100.025 49.479 101.121 49.0105L117.489 42.0195C118.564 41.5602 118.564 40.0361 117.489 39.5768L101.121 32.5858C100.025 32.1173 98.9141 33.2196 99.3744 34.3198Z" fill="white"/>
<path id="Vector_14" d="M108.269 42.0381L100.108 45.5257L102.085 40.7976L100.105 36.0695L108.269 39.5571C109.287 39.9927 109.287 41.6051 108.269 42.0381Z" fill="#FFDBED"/>
<path id="Vector_15" d="M87.8761 21.6938C87.3703 21.6948 86.8693 21.5958 86.402 21.4025C85.9346 21.2092 85.51 20.9255 85.1526 20.5676C83.6508 19.0658 83.6508 16.6223 85.1526 15.1207C86.6537 13.6194 89.0977 13.6188 90.5993 15.1207C92.1011 16.6225 92.1011 19.066 90.5993 20.5676C90.2419 20.9255 89.8174 21.2092 89.3501 21.4025C88.8827 21.5958 88.3818 21.6948 87.8761 21.6938ZM87.8761 16.6494C87.7191 16.6491 87.5636 16.6798 87.4185 16.7398C87.2734 16.7998 87.1416 16.8878 87.0306 16.9989C86.8068 17.2233 86.6812 17.5273 86.6812 17.8441C86.6812 18.161 86.8068 18.465 87.0306 18.6894C87.2549 18.9132 87.5589 19.0389 87.8758 19.0389C88.1927 19.0389 88.4967 18.9132 88.721 18.6894C88.9448 18.465 89.0705 18.161 89.0705 17.8441C89.0705 17.5273 88.9448 17.2233 88.721 16.9989C88.6101 16.8879 88.4784 16.7999 88.3334 16.7399C88.1884 16.6799 88.033 16.6491 87.8761 16.6494ZM58.0491 122.006C57.5433 122.006 57.0424 121.907 56.575 121.714C56.1076 121.521 55.683 121.237 55.3256 120.879C53.8238 119.377 53.8238 116.934 55.3256 115.432C56.8269 113.931 59.2712 113.931 60.7725 115.432C62.2744 116.934 62.2744 119.378 60.7725 120.879C60.4151 121.237 59.9905 121.521 59.5232 121.714C59.0558 121.907 58.5548 122.006 58.0491 122.006ZM58.0491 116.961C57.892 116.961 57.7365 116.991 57.5914 117.051C57.4463 117.111 57.3145 117.2 57.2036 117.311C56.9798 117.535 56.8541 117.839 56.8541 118.156C56.8541 118.473 56.9798 118.777 57.2036 119.001C57.428 119.225 57.732 119.351 58.0489 119.351C58.3659 119.351 58.6699 119.225 58.8943 119.001C59.1181 118.777 59.2437 118.473 59.2437 118.156C59.2437 117.839 59.1181 117.535 58.8943 117.311C58.7833 117.2 58.6516 117.112 58.5065 117.052C58.3615 116.992 58.206 116.961 58.0491 116.961Z" fill="#00ECA2"/>
<path id="Vector_16" d="M78.3006 25.114C78.1262 25.1142 77.9534 25.08 77.7923 25.0133C77.6312 24.9465 77.4848 24.8486 77.3616 24.7251L75.7772 23.1409L74.1927 24.7251C73.9426 24.9689 73.6064 25.1044 73.2571 25.1022C72.9078 25.0999 72.5734 24.9602 72.3264 24.7131C72.0794 24.4661 71.9397 24.1317 71.9375 23.7824C71.9353 23.4331 72.0709 23.097 72.3147 22.8469L74.8382 20.3234C75.0872 20.0744 75.425 19.9346 75.7772 19.9346C76.1293 19.9346 76.4671 20.0744 76.7161 20.3234L79.2396 22.8469C79.4253 23.0326 79.5517 23.2692 79.6029 23.5268C79.6542 23.7844 79.6279 24.0514 79.5274 24.2941C79.4269 24.5367 79.2567 24.7441 79.0383 24.8901C78.82 25.036 78.5632 25.1139 78.3006 25.114ZM116.807 116.96C116.633 116.961 116.46 116.926 116.299 116.86C116.138 116.793 115.991 116.695 115.868 116.572L114.284 114.987L112.699 116.572C112.449 116.815 112.113 116.951 111.764 116.949C111.414 116.946 111.08 116.807 110.833 116.56C110.586 116.313 110.446 115.978 110.444 115.629C110.442 115.28 110.577 114.943 110.821 114.693L113.345 112.17C113.594 111.921 113.932 111.781 114.284 111.781C114.636 111.781 114.974 111.921 115.223 112.17L117.746 114.693C117.932 114.879 118.058 115.116 118.11 115.373C118.161 115.631 118.134 115.898 118.034 116.141C117.933 116.383 117.763 116.591 117.545 116.737C117.327 116.882 117.07 116.96 116.807 116.96Z" fill="#FF7EB8"/>
<path id="Vector_17" d="M47.5154 118.222C47.341 118.222 47.1683 118.188 47.0071 118.122C46.846 118.055 46.6996 117.957 46.5765 117.833L44.992 116.249L43.4076 117.833C43.1574 118.077 42.8213 118.213 42.472 118.21C42.1226 118.208 41.7883 118.068 41.5413 117.821C41.2943 117.574 41.1546 117.24 41.1524 116.891C41.1502 116.541 41.2857 116.205 41.5296 115.955L44.053 113.432C44.3021 113.183 44.6398 113.043 44.992 113.043C45.3442 113.043 45.6819 113.183 45.931 113.432L48.4544 115.955C48.6401 116.141 48.7666 116.378 48.8178 116.635C48.869 116.893 48.8427 117.16 48.7422 117.402C48.6417 117.645 48.4715 117.852 48.2532 117.998C48.0348 118.144 47.7781 118.222 47.5154 118.222Z" fill="#963192" fill-opacity="0.2"/>
</g>
</g>
<defs>
<linearGradient id="paint0_linear_1609_12731" x1="114.839" y1="133.515" x2="52.6826" y2="51.1713" gradientUnits="userSpaceOnUse">
<stop stop-color="#C6D1FF"/>
<stop offset="0.583" stop-color="#E6D5F4"/>
<stop offset="0.997" stop-color="#FFD9EC"/>
</linearGradient>
<clipPath id="clip0_1609_12731">
<rect width="136" height="136" fill="white"/>
</clipPath>
</defs>
</svg>
