<svg width="25" height="24" viewBox="0 0 25 24" fill="none" xmlns="http://www.w3.org/2000/svg">
<path d="M5.59228 9.7501C5.59103 8.86096 5.7657 7.98035 6.10624 7.15901C6.44678 6.33766 6.94645 5.5918 7.57648 4.96438C8.2065 4.33697 8.95443 3.84041 9.77719 3.50329C10.5999 3.16617 11.4813 2.99516 12.3704 3.0001C16.0829 3.02823 19.0548 6.1126 19.0548 9.83448V10.5001C19.0548 13.8564 19.7579 15.8064 20.3767 16.8751C20.4424 16.9889 20.477 17.118 20.4771 17.2494C20.4773 17.3809 20.4428 17.51 20.3773 17.624C20.3118 17.7379 20.2175 17.8326 20.1039 17.8986C19.9902 17.9647 19.8612 17.9996 19.7298 18.0001H4.91728C4.78585 17.9996 4.65685 17.9647 4.54321 17.8986C4.42956 17.8326 4.33526 17.7379 4.26974 17.624C4.20423 17.51 4.16981 17.3809 4.16992 17.2494C4.17004 17.118 4.20469 16.9889 4.27041 16.8751C4.88916 15.8064 5.59228 13.8564 5.59228 10.5001V9.7501Z" stroke="#9695A8" stroke-width="1.5" stroke-linecap="round" stroke-linejoin="round"/>
<path d="M9.32324 18V18.75C9.32324 19.5456 9.63931 20.3087 10.2019 20.8713C10.7645 21.4339 11.5276 21.75 12.3232 21.75C13.1189 21.75 13.882 21.4339 14.4446 20.8713C15.0072 20.3087 15.3232 19.5456 15.3232 18.75V18" stroke="#9695A8" stroke-width="1.5" stroke-linecap="round" stroke-linejoin="round"/>
</svg>
