<svg width="268" height="56" viewBox="0 0 268 56" fill="none" xmlns="http://www.w3.org/2000/svg">
<path d="M40 31L43 28L40 25" stroke="#48546A" stroke-width="1.5" stroke-linecap="round" stroke-linejoin="round"/>
<path d="M37 28H33" stroke="#48546A" stroke-width="1.5" stroke-linecap="round" stroke-linejoin="round"/>
<path d="M42.364 34.364C39.79 36.938 35.9189 37.708 32.5559 36.3149C29.1928 34.9219 27 31.6402 27 28C27 24.3599 29.1928 21.0781 32.5559 19.6851C35.9189 18.2921 39.79 19.0621 42.364 21.6361" stroke="#48546A" stroke-width="1.5" stroke-linecap="round" stroke-linejoin="round"/>
<path d="M58.352 31.964H61.768V33H57.078V23.242H58.352V31.964ZM66.467 33.126C65.7483 33.126 65.095 32.9627 64.507 32.636C63.9283 32.3093 63.471 31.8473 63.135 31.25C62.8083 30.6433 62.645 29.9433 62.645 29.15C62.645 28.366 62.813 27.6753 63.149 27.078C63.4943 26.4713 63.961 26.0093 64.549 25.692C65.137 25.3653 65.795 25.202 66.523 25.202C67.251 25.202 67.909 25.3653 68.497 25.692C69.085 26.0093 69.547 26.4667 69.883 27.064C70.2283 27.6613 70.401 28.3567 70.401 29.15C70.401 29.9433 70.2236 30.6433 69.869 31.25C69.5236 31.8473 69.0523 32.3093 68.455 32.636C67.8576 32.9627 67.195 33.126 66.467 33.126ZM66.467 32.006C66.9243 32.006 67.3536 31.8987 67.755 31.684C68.1563 31.4693 68.4783 31.1473 68.721 30.718C68.973 30.2887 69.099 29.766 69.099 29.15C69.099 28.534 68.9776 28.0113 68.735 27.582C68.4923 27.1527 68.175 26.8353 67.783 26.63C67.391 26.4153 66.9663 26.308 66.509 26.308C66.0423 26.308 65.613 26.4153 65.221 26.63C64.8383 26.8353 64.5303 27.1527 64.297 27.582C64.0636 28.0113 63.947 28.534 63.947 29.15C63.947 29.7753 64.059 30.3027 64.283 30.732C64.5163 31.1613 64.8243 31.4833 65.207 31.698C65.5896 31.9033 66.0096 32.006 66.467 32.006ZM75.24 25.202C75.9027 25.202 76.4814 25.3467 76.976 25.636C77.48 25.9253 77.8534 26.2893 78.096 26.728V25.328H79.384V33.168C79.384 33.868 79.2347 34.4887 78.936 35.03C78.6374 35.5807 78.208 36.01 77.648 36.318C77.0974 36.626 76.4534 36.78 75.716 36.78C74.708 36.78 73.868 36.542 73.196 36.066C72.524 35.59 72.1274 34.9413 72.006 34.12H73.266C73.406 34.5867 73.6954 34.96 74.134 35.24C74.5727 35.5293 75.1 35.674 75.716 35.674C76.416 35.674 76.9854 35.4547 77.424 35.016C77.872 34.5773 78.096 33.9613 78.096 33.168V31.558C77.844 32.006 77.4707 32.3793 76.976 32.678C76.4814 32.9767 75.9027 33.126 75.24 33.126C74.5587 33.126 73.938 32.958 73.378 32.622C72.8274 32.286 72.3934 31.8147 72.076 31.208C71.7587 30.6013 71.6 29.9107 71.6 29.136C71.6 28.352 71.7587 27.666 72.076 27.078C72.3934 26.4807 72.8274 26.0187 73.378 25.692C73.938 25.3653 74.5587 25.202 75.24 25.202ZM78.096 29.15C78.096 28.5713 77.9794 28.0673 77.746 27.638C77.5127 27.2087 77.1954 26.882 76.794 26.658C76.402 26.4247 75.968 26.308 75.492 26.308C75.016 26.308 74.582 26.42 74.19 26.644C73.798 26.868 73.4854 27.1947 73.252 27.624C73.0187 28.0533 72.902 28.5573 72.902 29.136C72.902 29.724 73.0187 30.2373 73.252 30.676C73.4854 31.1053 73.798 31.4367 74.19 31.67C74.582 31.894 75.016 32.006 75.492 32.006C75.968 32.006 76.402 31.894 76.794 31.67C77.1954 31.4367 77.5127 31.1053 77.746 30.676C77.9794 30.2373 78.096 29.7287 78.096 29.15ZM84.883 33.126C84.1643 33.126 83.511 32.9627 82.923 32.636C82.3443 32.3093 81.887 31.8473 81.551 31.25C81.2243 30.6433 81.061 29.9433 81.061 29.15C81.061 28.366 81.229 27.6753 81.565 27.078C81.9103 26.4713 82.377 26.0093 82.965 25.692C83.553 25.3653 84.211 25.202 84.939 25.202C85.667 25.202 86.325 25.3653 86.913 25.692C87.501 26.0093 87.963 26.4667 88.299 27.064C88.6443 27.6613 88.817 28.3567 88.817 29.15C88.817 29.9433 88.6397 30.6433 88.285 31.25C87.9397 31.8473 87.4683 32.3093 86.871 32.636C86.2737 32.9627 85.611 33.126 84.883 33.126ZM84.883 32.006C85.3403 32.006 85.7697 31.8987 86.171 31.684C86.5723 31.4693 86.8943 31.1473 87.137 30.718C87.389 30.2887 87.515 29.766 87.515 29.15C87.515 28.534 87.3937 28.0113 87.151 27.582C86.9083 27.1527 86.591 26.8353 86.199 26.63C85.807 26.4153 85.3823 26.308 84.925 26.308C84.4583 26.308 84.029 26.4153 83.637 26.63C83.2543 26.8353 82.9463 27.1527 82.713 27.582C82.4797 28.0113 82.363 28.534 82.363 29.15C82.363 29.7753 82.475 30.3027 82.699 30.732C82.9323 31.1613 83.2403 31.4833 83.623 31.698C84.0057 31.9033 84.4257 32.006 84.883 32.006ZM97.2961 25.328V33H96.0221V31.866C95.7794 32.258 95.4387 32.566 95.0001 32.79C94.5707 33.0047 94.0947 33.112 93.5721 33.112C92.9747 33.112 92.4381 32.9907 91.9621 32.748C91.4861 32.496 91.1081 32.1227 90.8281 31.628C90.5574 31.1333 90.4221 30.5313 90.4221 29.822V25.328H91.6821V29.654C91.6821 30.41 91.8734 30.9933 92.2561 31.404C92.6387 31.8053 93.1614 32.006 93.8241 32.006C94.5054 32.006 95.0421 31.796 95.4341 31.376C95.8261 30.956 96.0221 30.3447 96.0221 29.542V25.328H97.2961ZM101.001 26.378V30.9C101.001 31.2733 101.08 31.5393 101.239 31.698C101.398 31.8473 101.673 31.922 102.065 31.922H103.003V33H101.855C101.146 33 100.614 32.8367 100.259 32.51C99.9045 32.1833 99.7271 31.6467 99.7271 30.9V26.378H98.7331V25.328H99.7271V23.396H101.001V25.328H103.003V26.378H101.001Z" fill="#48546A"/>
</svg>
