<svg width="126" height="47" viewBox="0 0 126 47" fill="none" xmlns="http://www.w3.org/2000/svg">
<g clip-path="url(#clip0_22_2)">
<path d="M106.582 46.424L54.513 43.115C53.7238 43.0969 52.9459 42.9236 52.2237 42.6049C51.5015 42.2862 50.8491 41.8284 50.3039 41.2576C49.7586 40.6868 49.3311 40.0142 49.0458 39.2782C48.7604 38.5422 48.6229 37.7572 48.641 36.968L49.178 13.547C49.2124 12.0455 49.8076 10.6113 50.8464 9.52656C51.8852 8.44186 53.2924 7.78526 54.791 7.68598L118.616 3.46598C119.666 3.39722 120.715 3.60519 121.659 4.0691C122.604 4.533 123.41 5.23659 123.997 6.10956C124.584 6.98254 124.932 7.99431 125.005 9.04377C125.079 10.0932 124.876 11.1436 124.416 12.09L115.554 42.316C114.044 46.927 108.934 46.478 106.582 46.424Z" fill="#91288C"/>
<path d="M0 29.744V6.14402C0 6.14402 1.04899 0.900009 5.94299 0.026009H60.891C60.891 0.026009 69.399 -0.906977 65.901 8.41602L60.663 27.082C60.2706 28.5001 59.5869 29.8209 58.6554 30.9598C57.7239 32.0988 56.5651 33.0311 55.253 33.697C52.0275 35.2089 48.4809 35.9079 44.923 35.733H6.118C6.118 35.733 0.92 34.988 0 29.744Z" fill="#FBB516"/>
<path d="M21.779 21.538C21.779 21.746 21.7443 22.0233 21.675 22.37C21.6056 22.7167 21.4236 23.0633 21.129 23.41C20.8343 23.7567 20.3923 24.06 19.803 24.32C19.2136 24.5627 18.399 24.684 17.359 24.684C16.319 24.684 15.5043 24.5627 14.915 24.32C14.3256 24.06 13.8836 23.7567 13.589 23.41C13.2943 23.0633 13.1123 22.7167 13.043 22.37C12.9736 22.006 12.939 21.7287 12.939 21.538V13.842C12.939 13.6513 12.9736 13.3827 13.043 13.036C13.1123 12.672 13.2943 12.3167 13.589 11.97C13.8836 11.6233 14.3256 11.3287 14.915 11.086C15.5043 10.826 16.319 10.696 17.359 10.696C18.399 10.696 19.2136 10.826 19.803 11.086C20.3923 11.3287 20.8343 11.6233 21.129 11.97C21.4236 12.3167 21.6056 12.6633 21.675 13.01C21.7443 13.3567 21.779 13.634 21.779 13.842V21.538ZM19.569 14.232C19.569 14.076 19.543 13.9113 19.491 13.738C19.439 13.5473 19.3263 13.374 19.153 13.218C18.997 13.062 18.7716 12.932 18.477 12.828C18.1823 12.7067 17.7836 12.646 17.281 12.646C16.813 12.646 16.4316 12.7067 16.137 12.828C15.8596 12.932 15.643 13.0707 15.487 13.244C15.331 13.4 15.227 13.5733 15.175 13.764C15.1403 13.9547 15.123 14.1193 15.123 14.258V21.122C15.123 21.2607 15.1403 21.4253 15.175 21.616C15.227 21.8067 15.331 21.9887 15.487 22.162C15.643 22.318 15.8596 22.4567 16.137 22.578C16.4316 22.682 16.813 22.734 17.281 22.734C17.7836 22.734 18.1823 22.682 18.477 22.578C18.7716 22.4567 18.997 22.318 19.153 22.162C19.3263 22.006 19.439 21.8413 19.491 21.668C19.543 21.4773 19.569 21.304 19.569 21.148V14.232Z" fill="white"/>
<path d="M33.2054 24.476H30.9954V14.258C30.9954 14.102 30.9694 13.9373 30.9174 13.764C30.8827 13.5733 30.7874 13.4 30.6314 13.244C30.4754 13.0707 30.25 12.932 29.9554 12.828C29.678 12.7067 29.3054 12.646 28.8374 12.646C28.352 12.646 27.9534 12.7067 27.6414 12.828C27.3467 12.932 27.1127 13.062 26.9394 13.218C26.7834 13.374 26.6794 13.5473 26.6274 13.738C26.5754 13.9113 26.5494 14.0673 26.5494 14.206V24.476H24.3394V13.842C24.3394 13.634 24.374 13.3567 24.4434 13.01C24.5127 12.6633 24.6947 12.3167 24.9894 11.97C25.3014 11.6233 25.752 11.3287 26.3414 11.086C26.9307 10.826 27.7454 10.696 28.7854 10.696C29.8254 10.696 30.64 10.826 31.2294 11.086C31.8187 11.3287 32.2607 11.6233 32.5554 11.97C32.85 12.3167 33.032 12.672 33.1014 13.036C33.1707 13.3827 33.2054 13.6513 33.2054 13.842V24.476Z" fill="white"/>
<path d="M40.2111 10.696C41.2511 10.696 42.0658 10.826 42.6551 11.086C43.2445 11.3287 43.6865 11.6233 43.9811 11.97C44.2758 12.3167 44.4578 12.672 44.5271 13.036C44.5965 13.3827 44.6311 13.6513 44.6311 13.842V15.09C44.6311 15.3847 44.5705 15.714 44.4491 16.078C44.3451 16.442 44.0851 16.832 43.6691 17.248C43.4785 17.456 43.2618 17.612 43.0191 17.716C42.7765 17.82 42.5598 17.898 42.3691 17.95C42.1438 18.0193 41.9098 18.054 41.6671 18.054H39.6911C39.2405 18.054 38.8418 18.2187 38.4951 18.548C38.1485 18.8773 37.9751 19.2847 37.9751 19.77V20.94C37.9751 21.356 38.0531 21.6853 38.2091 21.928C38.2785 22.0493 38.3565 22.1533 38.4431 22.24C38.5298 22.3267 38.6598 22.4047 38.8331 22.474C38.9718 22.5433 39.1451 22.604 39.3531 22.656C39.5785 22.708 39.8645 22.734 40.2111 22.734C40.6618 22.734 41.0171 22.6907 41.2771 22.604C41.5371 22.5 41.7191 22.4133 41.8231 22.344C42.0485 22.1707 42.2045 21.9627 42.2911 21.72C42.3778 21.4773 42.4211 21.2173 42.4211 20.94H44.6311V21.564C44.6311 22.032 44.5271 22.4653 44.3191 22.864C44.1285 23.2627 43.8251 23.6093 43.4091 23.904C43.1145 24.112 42.7071 24.294 42.1871 24.45C41.6671 24.606 41.0085 24.684 40.2111 24.684C39.6218 24.684 39.1105 24.632 38.6771 24.528C38.2438 24.4413 37.8625 24.3287 37.5331 24.19C37.2211 24.034 36.9611 23.8607 36.7531 23.67C36.5451 23.4793 36.3718 23.2887 36.2331 23.098C35.9211 22.6473 35.7738 22.1273 35.7911 21.538V13.842C35.7911 13.634 35.8258 13.3567 35.8951 13.01C35.9645 12.6633 36.1465 12.3167 36.4411 11.97C36.7358 11.6233 37.1778 11.3287 37.7671 11.086C38.3565 10.826 39.1711 10.696 40.2111 10.696ZM42.4211 14.258C42.4211 14.102 42.3951 13.9373 42.3431 13.764C42.3085 13.5733 42.2131 13.4 42.0571 13.244C41.9011 13.0707 41.6758 12.932 41.3811 12.828C41.1038 12.7067 40.7311 12.646 40.2631 12.646C39.7778 12.646 39.3791 12.7067 39.0671 12.828C38.7725 12.932 38.5385 13.062 38.3651 13.218C38.2091 13.374 38.1051 13.5473 38.0531 13.738C38.0011 13.9113 37.9751 14.0673 37.9751 14.206V16.91C38.0098 16.754 38.0878 16.6327 38.2091 16.546C38.3305 16.442 38.4691 16.364 38.6251 16.312C38.7811 16.26 38.9371 16.2253 39.0931 16.208C39.2491 16.1907 39.3705 16.182 39.4571 16.182H40.9391C41.3378 16.182 41.6845 16.0433 41.9791 15.766C42.2738 15.4713 42.4211 15.1247 42.4211 14.726V14.258Z" fill="white"/>
<path d="M72.496 32.462V16.512H74.344V32.462H72.496Z" fill="white"/>
<path d="M83.9802 29.976C83.9802 30.152 83.9509 30.3867 83.8922 30.68C83.8335 30.9734 83.6795 31.2667 83.4302 31.56C83.1809 31.8534 82.8069 32.11 82.3082 32.33C81.8095 32.5354 81.1202 32.638 80.2402 32.638C79.3602 32.638 78.6709 32.5354 78.1722 32.33C77.6735 32.11 77.2995 31.8534 77.0502 31.56C76.8009 31.2667 76.6469 30.9734 76.5882 30.68C76.5295 30.372 76.5002 30.1374 76.5002 29.976V23.464C76.5002 23.3027 76.5295 23.0754 76.5882 22.782C76.6469 22.474 76.8009 22.1734 77.0502 21.88C77.2995 21.5867 77.6735 21.3374 78.1722 21.132C78.6709 20.912 79.3602 20.802 80.2402 20.802C81.1202 20.802 81.8095 20.912 82.3082 21.132C82.8069 21.3374 83.1809 21.5867 83.4302 21.88C83.6795 22.1734 83.8335 22.4667 83.8922 22.76C83.9509 23.0534 83.9802 23.288 83.9802 23.464V29.976ZM82.1102 23.794C82.1102 23.662 82.0882 23.5227 82.0442 23.376C82.0002 23.2147 81.9049 23.068 81.7582 22.936C81.6262 22.804 81.4355 22.694 81.1862 22.606C80.9369 22.5034 80.5995 22.452 80.1742 22.452C79.7782 22.452 79.4555 22.5034 79.2062 22.606C78.9715 22.694 78.7882 22.8114 78.6562 22.958C78.5242 23.09 78.4362 23.2367 78.3922 23.398C78.3629 23.5594 78.3482 23.6987 78.3482 23.816V29.624C78.3482 29.7414 78.3629 29.8807 78.3922 30.042C78.4362 30.2034 78.5242 30.3574 78.6562 30.504C78.7882 30.636 78.9715 30.7534 79.2062 30.856C79.4555 30.944 79.7782 30.988 80.1742 30.988C80.5995 30.988 80.9369 30.944 81.1862 30.856C81.4355 30.7534 81.6262 30.636 81.7582 30.504C81.9049 30.372 82.0002 30.2327 82.0442 30.086C82.0882 29.9247 82.1102 29.778 82.1102 29.646V23.794Z" fill="white"/>
<path d="M89.8867 20.802C91.1774 20.802 92.1234 21.0587 92.7247 21.572C93.326 22.0707 93.6267 22.7014 93.6267 23.464V29.976C93.6267 30.24 93.5754 30.5334 93.4727 30.856C93.3847 31.164 93.2014 31.45 92.9227 31.714C92.644 31.978 92.2627 32.198 91.7787 32.374C91.2947 32.55 90.664 32.638 89.8867 32.638C89.1094 32.638 88.4787 32.55 87.9947 32.374C87.5107 32.198 87.1294 31.978 86.8507 31.714C86.572 31.45 86.3814 31.164 86.2787 30.856C86.1907 30.5334 86.1467 30.24 86.1467 29.976V28.942C86.1467 28.3847 86.286 27.8787 86.5647 27.424C86.858 26.9694 87.2687 26.6467 87.7967 26.456C88.0607 26.368 88.3614 26.2654 88.6987 26.148C89.036 26.0307 89.3587 25.9207 89.6667 25.818C89.9894 25.7007 90.268 25.598 90.5027 25.51C90.7374 25.422 90.884 25.3707 90.9427 25.356C91.0014 25.3267 91.0747 25.29 91.1627 25.246C91.2654 25.1874 91.3607 25.1067 91.4487 25.004C91.5367 24.9014 91.61 24.784 91.6687 24.652C91.742 24.52 91.7787 24.366 91.7787 24.19V23.772C91.7787 23.6254 91.7494 23.4787 91.6907 23.332C91.632 23.1707 91.5294 23.024 91.3827 22.892C91.236 22.76 91.038 22.6574 90.7887 22.584C90.554 22.496 90.2534 22.452 89.8867 22.452C89.1534 22.452 88.6547 22.606 88.3907 22.914C88.1414 23.2074 88.0167 23.5667 88.0167 23.992H86.1467V23.464C86.1467 23.0974 86.2127 22.7527 86.3447 22.43C86.4914 22.1074 86.7187 21.8287 87.0267 21.594C87.3347 21.3447 87.7234 21.154 88.1927 21.022C88.662 20.8754 89.2267 20.802 89.8867 20.802ZM91.7787 26.632C91.7494 26.7787 91.676 26.8887 91.5587 26.962C91.4414 27.0354 91.3314 27.0867 91.2287 27.116C91.0087 27.1894 90.7667 27.2774 90.5027 27.38C90.2534 27.468 90.0187 27.5487 89.7987 27.622C89.5347 27.71 89.2854 27.798 89.0507 27.886C88.8747 27.9594 88.706 28.062 88.5447 28.194C88.4127 28.3114 88.288 28.4654 88.1707 28.656C88.068 28.832 88.0167 29.0594 88.0167 29.338C88.0167 29.8954 88.1487 30.3134 88.4127 30.592C88.6767 30.856 89.168 30.988 89.8867 30.988C90.62 30.988 91.1187 30.8487 91.3827 30.57C91.6467 30.2767 91.7787 29.866 91.7787 29.338V26.632Z" fill="white"/>
<path d="M103.273 29.998C103.259 30.7607 102.951 31.3987 102.349 31.912C101.748 32.4107 100.809 32.66 99.5332 32.66C98.8732 32.66 98.3012 32.594 97.8172 32.462C97.3478 32.3154 96.9592 32.1247 96.6512 31.89C96.3432 31.6407 96.1158 31.3547 95.9692 31.032C95.8372 30.7094 95.7712 30.3647 95.7712 29.998V29.47H95.7932V25.004H95.7712V24.498C95.7712 23.9407 95.9105 23.4347 96.1892 22.98C96.4825 22.5254 96.9005 22.2027 97.4432 22.012C97.7072 21.924 98.0078 21.8214 98.3452 21.704C98.6825 21.5867 99.0052 21.4767 99.3132 21.374C99.6212 21.2567 99.8925 21.154 100.127 21.066C100.362 20.978 100.509 20.9267 100.567 20.912C100.626 20.8827 100.699 20.846 100.787 20.802C100.89 20.7434 100.985 20.6627 101.073 20.56C101.161 20.4574 101.235 20.34 101.293 20.208C101.367 20.076 101.403 19.922 101.403 19.746V16.512H103.273V29.998ZM99.5332 31.01C99.8998 31.01 100.201 30.9734 100.435 30.9C100.685 30.812 100.875 30.702 101.007 30.57C101.154 30.438 101.257 30.2914 101.315 30.13C101.374 29.9687 101.403 29.8147 101.403 29.668V22.166C101.374 22.3274 101.301 22.4447 101.183 22.518C101.081 22.5914 100.971 22.6427 100.853 22.672C100.633 22.7454 100.391 22.826 100.127 22.914C99.8778 23.002 99.6432 23.0827 99.4232 23.156C99.1592 23.244 98.9098 23.332 98.6752 23.42C98.4992 23.4934 98.3305 23.6034 98.1692 23.75C98.0372 23.8674 97.9125 24.0214 97.7952 24.212C97.6925 24.388 97.6412 24.6154 97.6412 24.894V29.558C97.6558 29.7487 97.6925 29.932 97.7512 30.108C97.8245 30.284 97.9272 30.438 98.0592 30.57C98.2058 30.702 98.3965 30.812 98.6312 30.9C98.8805 30.9734 99.1812 31.01 99.5332 31.01Z" fill="white"/>
</g>
<defs>
<clipPath id="clip0_22_2">
<rect width="125.033" height="46.46" fill="white"/>
</clipPath>
</defs>
</svg>
